<svg width="50" height="50" viewBox="0 0 50 50" fill="none" xmlns="http://www.w3.org/2000/svg">
<path id="Subtract" fill-rule="evenodd" clip-rule="evenodd" d="M50 25C50 38.8071 38.8071 50 25 50C11.1929 50 0 38.8071 0 25C0 11.1929 11.1929 0 25 0C38.8071 0 50 11.1929 50 25ZM27.5908 7.67365H33.1289H33.1316V13.6501C32.8145 13.652 31.8713 13.6513 31.0077 13.6507C30.6044 13.6504 30.2185 13.6501 29.9217 13.6501C29.9176 13.6501 29.9113 13.65 29.903 13.6498C29.6705 13.6451 27.845 13.6075 27.845 15.4249C27.8568 16.1938 27.845 18.8416 27.845 18.8416H33.1532L32.723 24.7938H27.9691V42.3262H20.7664V24.9088H16.8467V18.8586H20.6488C20.6488 18.2495 20.6506 17.6636 20.6525 17.0901C20.656 15.979 20.6594 14.9147 20.6488 13.8198C20.6488 9.0559 24.3043 7.67365 27.5908 7.67365Z" fill="white" fill-opacity="0.15"/>
</svg>
