<svg width="204" height="84" viewBox="0 0 204 84" fill="none" xmlns="http://www.w3.org/2000/svg">
<g id="Marvel logo" clip-path="url(#clip0_102_30)">
<path id="Vector" d="M0 0H204V84H0V0Z" fill="#F0141E"/>
<path id="Vector_2" d="M172.633 19.58V6.71622H137.665L131.908 49.6747L126.221 6.71622H113.61L115.019 18.1873C113.566 15.2473 108.405 6.71622 97.0424 6.71622C96.9669 6.71118 84.4168 6.71622 84.4168 6.71622L84.3646 69.3315L75.1752 6.71622L58.6578 6.71118L49.1497 71.5873L49.155 6.71622H33.3442L27.6465 43.1588L22.0961 6.71622H6.28279V77.2477H18.7362V43.2512L24.4017 77.2477H31.0211L36.6066 43.2512V77.2477H60.6125L62.0641 66.3991H71.7289L73.1805 77.2477L96.7511 77.2632H96.7682V77.2477H96.7976V54.356L99.6838 53.9259L105.665 77.2632H117.858L117.853 77.2477H117.888L110.038 49.9015C114.013 46.8863 118.505 39.2423 117.31 31.9263V31.9238C117.324 32.0187 124.721 77.2947 124.721 77.2947L139.219 77.2485L149.124 13.3232V77.2485H172.632V64.5649H161.476V48.392H172.632V35.5148H161.476V19.58H172.633ZM63.5309 55.2174L66.9528 25.0606L70.4983 55.2174H63.5309ZM99.7238 41.2923C98.7674 41.764 97.7719 42 96.7976 42.0025V19.3183C96.8127 19.3183 96.8355 19.3158 96.86 19.3158C97.8311 19.3082 105.103 19.6157 105.103 30.5336C105.103 36.2447 102.63 39.8467 99.7238 41.2923ZM197.72 64.5532V77.2321H174.784V6.70614H187.135V64.5532H197.72Z" fill="white"/>
</g>
<defs>
<clipPath id="clip0_102_30">
<rect width="204" height="84" fill="white"/>
</clipPath>
</defs>
</svg>
