<svg width="50" height="50" viewBox="0 0 50 50" fill="none" xmlns="http://www.w3.org/2000/svg">
<path id="Subtract" fill-rule="evenodd" clip-rule="evenodd" d="M50 25C50 38.8071 38.8071 50 25 50C11.1929 50 0 38.8071 0 25C0 11.1929 11.1929 0 25 0C38.8071 0 50 11.1929 50 25ZM36.881 18.9066C38.0896 18.7631 39.242 18.4418 40.3134 17.9668C39.5125 19.1651 38.4996 20.2173 37.3311 21.0596C37.3427 21.3154 37.3485 21.5734 37.3485 21.8323C37.3485 29.7297 31.3376 38.8352 20.3461 38.8352C16.9716 38.8352 13.8298 37.8463 11.1867 36.1501C11.6533 36.2058 12.1301 36.2339 12.6114 36.2339C15.4119 36.2339 17.9882 35.2789 20.0337 33.6759C17.4182 33.6273 15.2118 31.8995 14.4515 29.526C14.816 29.5955 15.1899 29.6325 15.5759 29.6325C16.12 29.6325 16.649 29.5599 17.1499 29.4226C14.4167 28.874 12.3561 26.4591 12.3561 23.5637C12.3561 23.5387 12.3561 23.5133 12.3565 23.4879C13.1618 23.9367 14.0838 24.2054 15.0629 24.2362C13.4604 23.1648 12.4046 21.335 12.4046 19.2623C12.4046 18.1673 12.6996 17.1401 13.2139 16.2577C16.1614 19.8742 20.5649 22.253 25.5312 22.5021C25.4287 22.0645 25.3757 21.6086 25.3757 21.1402C25.3757 17.8407 28.0518 15.1645 31.3514 15.1645C33.0711 15.1645 34.6242 15.8901 35.7143 17.051C37.0748 16.7831 38.3543 16.2862 39.509 15.6013C39.062 16.9975 38.115 18.1673 36.881 18.9066Z" fill="white" fill-opacity="0.15"/>
</svg>
